<?xml version="1.0" encoding="UTF-8"?>
<svg id="Layer_1" data-name="Layer 1" xmlns="http://www.w3.org/2000/svg" xmlns:xlink="http://www.w3.org/1999/xlink" viewBox="0 0 138.76 19.7">
  <defs>
    <style>
      .cls-1 {
        fill: url(#linear-gradient-3);
        opacity: .15;
      }

      .cls-1, .cls-2, .cls-3 {
        fill-rule: evenodd;
      }

      .cls-1, .cls-2, .cls-3, .cls-4 {
        stroke-width: 0px;
      }

      .cls-1, .cls-3 {
        isolation: isolate;
      }

      .cls-2 {
        fill: url(#linear-gradient);
      }

      .cls-3 {
        fill: url(#linear-gradient-2);
        opacity: .5;
      }

      .cls-4 {
        fill: #fff;
      }
    </style>
    <linearGradient id="linear-gradient" x1="-836.23" y1="524.13" x2="-836.77" y2="523.13" gradientTransform="translate(14052.21 10327.9) scale(16.79 -19.7)" gradientUnits="userSpaceOnUse">
      <stop offset="0" stop-color="#33d35e"/>
      <stop offset="1" stop-color="#2ab6d9"/>
    </linearGradient>
    <linearGradient id="linear-gradient-2" x1="-836.23" y1="524.13" x2="-836.77" y2="523.13" gradientTransform="translate(14059.58 10327.9) scale(16.79 -19.7)" gradientUnits="userSpaceOnUse">
      <stop offset="0" stop-color="#33d35e"/>
      <stop offset="1" stop-color="#2ab6d9"/>
    </linearGradient>
    <linearGradient id="linear-gradient-3" x1="-836.22" y1="524.13" x2="-836.77" y2="523.13" gradientTransform="translate(14066.06 10327.9) scale(16.79 -19.7)" gradientUnits="userSpaceOnUse">
      <stop offset="0" stop-color="#33d35e"/>
      <stop offset="1" stop-color="#2ab6d9"/>
    </linearGradient>
  </defs>
  <path class="cls-4" d="M37.75,15.85c2.85,0,5.15-1.62,5.95-4.22h-3.9c-.38.66-1.14,1.07-2.06,1.07-1.24,0-2.06-.67-2.32-1.98h8.44c.05-.35.08-.69.08-1.04,0-3.34-2.54-5.95-6.2-5.95s-6.17,2.56-6.17,6.05,2.63,6.07,6.17,6.07ZM40.1,8.55h-4.6c.32-1.13,1.11-1.75,2.25-1.75s2,.61,2.34,1.75h0ZM51.04,15.85c1.32,0,2.5-.43,3.43-1.19l.34.8h3.03V4.09h-2.92l-.4.88c-.94-.78-2.13-1.22-3.47-1.22-3.48,0-5.96,2.51-5.96,6.03s2.49,6.07,5.96,6.07h0ZM51.57,12.38c-1.47,0-2.54-1.11-2.54-2.59s1.07-2.58,2.54-2.58,2.54,1.11,2.54,2.58-1.08,2.59-2.54,2.59ZM64.69,15.85c3.02,0,5.03-1.55,5.03-3.93,0-2.88-2.39-3.26-4.18-3.57-1.08-.19-1.95-.34-1.95-.99,0-.53.42-.84,1.05-.84.71,0,1.2.34,1.2,1.06h3.67c-.04-2.3-1.92-3.84-4.82-3.84s-4.85,1.47-4.85,3.75c0,2.76,2.34,3.29,4.1,3.57,1.09.18,1.95.37,1.95,1.02,0,.59-.54.88-1.12.88-.74,0-1.32-.38-1.32-1.21h-3.77c.04,2.46,1.92,4.1,5.02,4.1h0ZM72.79,19.7c2.94,0,4.34-1.26,5.88-4.74l4.76-10.86h-4.21l-2.25,6.26-2.41-6.26h-4.25l4.7,10.43c-.53,1.41-.98,1.8-2.48,1.8h-1.08v3.36h1.34ZM91.29,15.85c3.5,0,5.97-2.52,5.97-6.05s-2.47-6.05-5.97-6.05c-1,0-1.98.26-2.82.78V0h-3.87v15.47h2.9l.37-.84c.92.77,2.1,1.22,3.43,1.22ZM90.77,12.38c-1.47,0-2.54-1.11-2.54-2.58s1.08-2.59,2.54-2.59,2.54,1.11,2.54,2.59-1.09,2.58-2.54,2.58h0ZM104.37,15.85c1.32,0,2.5-.43,3.43-1.19l.34.8h3.03V4.09h-2.92l-.4.88c-.94-.78-2.14-1.22-3.47-1.22-3.48,0-5.96,2.51-5.96,6.03s2.48,6.07,5.96,6.07h0ZM104.89,12.38c-1.47,0-2.54-1.11-2.54-2.59s1.07-2.58,2.54-2.58,2.54,1.11,2.54,2.58-1.08,2.59-2.54,2.59ZM117.55,15.47v-6.07c0-1.45.7-2.3,1.92-2.3.99,0,1.48.66,1.48,1.98v6.39h3.92v-6.93c0-2.9-1.73-4.77-4.37-4.77-1.47,0-2.73.57-3.58,1.51l-.54-1.17h-2.75v11.37h3.92ZM131.29,15.47v-4.81l2.85,4.81h4.62l-3.9-5.95,3.54-5.42h-4.4l-2.71,4.45V0h-3.92v15.47h3.92,0Z"/>
  <g>
    <path class="cls-2" d="M10.8,0L0,19.7h5.99L16.79,0h-5.99Z"/>
    <path class="cls-3" d="M18.17,0L7.37,19.7h5.99L24.16,0h-5.99Z"/>
    <path class="cls-1" d="M25.54,0l-10.8,19.7h5.99L31.52,0h-5.99Z"/>
  </g>
</svg>